<?xml version="1.0" encoding="UTF-8" standalone="no"?>
<svg
   xmlns:dc="http://purl.org/dc/elements/1.1/"
   xmlns:cc="http://creativecommons.org/ns#"
   xmlns:rdf="http://www.w3.org/1999/02/22-rdf-syntax-ns#"
   xmlns:svg="http://www.w3.org/2000/svg"
   xmlns="http://www.w3.org/2000/svg"
   xmlns:sodipodi="http://sodipodi.sourceforge.net/DTD/sodipodi-0.dtd"
   xmlns:inkscape="http://www.inkscape.org/namespaces/inkscape"
   id="svg156"
   viewBox="0 0 4835.973 2974"
   style="clip-rule:evenodd;fill-rule:evenodd;image-rendering:optimizeQuality;shape-rendering:geometricPrecision;text-rendering:geometricPrecision"
   version="1.1"
   height="2.9738424in"
   width="4.8357434in"
   xml:space="preserve"
   sodipodi:docname="Ate-0003001.svg"
   inkscape:version="0.92.0 r15299"><sodipodi:namedview
     pagecolor="#ffffff"
     bordercolor="#666666"
     borderopacity="1"
     objecttolerance="10"
     gridtolerance="10"
     guidetolerance="10"
     inkscape:pageopacity="0"
     inkscape:pageshadow="2"
     inkscape:window-width="2560"
     inkscape:window-height="1377"
     id="namedview10"
     showgrid="false"
     inkscape:zoom="0.76685899"
     inkscape:cx="-191.69104"
     inkscape:cy="142.74443"
     inkscape:window-x="1912"
     inkscape:window-y="156"
     inkscape:window-maximized="1"
     inkscape:current-layer="svg156" /><metadata
     id="metadata160"><rdf:RDF><cc:Work
         rdf:about=""><dc:format>image/svg+xml</dc:format><dc:type
           rdf:resource="http://purl.org/dc/dcmitype/StillImage" /><dc:title /></cc:Work></rdf:RDF></metadata><defs
     id="defs4"><style
       id="style2"
       type="text/css"><![CDATA[
    .fil1 {fill:#2671AA;fill-rule:nonzero}
    .fil2 {fill:#2B84C5;fill-rule:nonzero}
    .fil0 {fill:#B48455;fill-rule:nonzero}
    .fil3 {fill:#FEFEFE;fill-rule:nonzero}
   ]]></style></defs><polygon
     class="fil2"
     points="6000,-5 1164,-5 1164,2969 6000,2969 "
     id="polygon149"
     style="fill:#175da9;fill-rule:nonzero;fill-opacity:1"
     transform="translate(-1164.0199,5)" /><path
     inkscape:connector-curvature="0"
     class="fil3"
     d="m 1100.9801,299 h 2609 v 2372 h -2609 z m -113,2475 h 2836 V 196 h -2836 z"
     id="path151"
     style="fill:#fefefe;fill-rule:nonzero" /><path
     inkscape:connector-curvature="0"
     class="fil3"
     d="m 2056.9801,1747 c 154,-61 238,19 208,99 l -38,86 h -443 c 87,-84 176,-147 273,-185 z m 518,231 h 85 l -16,33 h 73 l -90,192 -179,44 126,-269 z m 654,93 c 53,-24 72,31 34,53 -23,14 -54,23 -88,32 0,0 -8,-50 54,-85 z m -1551,-25 c 21,-24 41,-47 62,-69 h 466 l -161,346 h 382 l 197,-48 c 28,74 112,104 417,-6 57,114 201,81 358,5 l 44,-90 c -100,46 -224,91 -247,38 24,-7 100,-23 164,-68 63,-45 57,-157 -75,-159 -143,-2 -247,83 -264,207 l -64,21 c -38,11 -44,-7 -34,-24 l 89,-190 h 86 l 15,-33 h 439 l 22,-46 h -441 l 16,-33 h -85 l 88,-185 h -294 l -86,185 h -74 l -16,33 h -85 l 99,-203 c 43,-85 36,-144 -6,-177 -52,-41 -325,-141 -651,59 -146,90 -270,192 -385,321 h -275 l -33,46 h 268 c -120,143 -232,318 -353,541 h 2254 l 54,-115 h -2139 c 0,0 120,-204 250,-356 z"
     id="path153"
     style="fill:#fefefe;fill-rule:nonzero" /></svg>