<?xml version="1.0" encoding="UTF-8" standalone="no"?>
<svg
   xmlns:dc="http://purl.org/dc/elements/1.1/"
   xmlns:cc="http://creativecommons.org/ns#"
   xmlns:rdf="http://www.w3.org/1999/02/22-rdf-syntax-ns#"
   xmlns:svg="http://www.w3.org/2000/svg"
   xmlns="http://www.w3.org/2000/svg"
   id="svg24"
   version="1.1"
   viewBox="0 0 110 20.02">
  <metadata
     id="metadata28">
    <rdf:RDF>
      <cc:Work
         rdf:about="">
        <dc:format>image/svg+xml</dc:format>
        <dc:type
           rdf:resource="http://purl.org/dc/dcmitype/StillImage" />
        <dc:title>bosch</dc:title>
      </cc:Work>
    </rdf:RDF>
  </metadata>
  <defs
     id="defs4">
    <style
       id="style2">.cls-1{fill:red;}</style>
  </defs>
  <title
     id="title6">bosch</title>
  <g
     data-name="Capa 2"
     id="Capa_2">
    <g
       data-name="Capa 1"
       id="Capa_1-2">
      <path
         id="path8"
         d="M33.92,15.75h-3.5V11.88h3.65a1.94,1.94,0,1,1-.15,3.87m-3.5-11h3.71a1.68,1.68,0,0,1,1.45,1.78,1.74,1.74,0,0,1-1.82,1.77H30.42V4.74Zm8.45,4.8a4.83,4.83,0,0,0,1.68-3.45C40.55,3.44,39,.62,34.86.62H26v19H36a5.47,5.47,0,0,0,5.28-5.32,5.77,5.77,0,0,0-2.4-4.73"
         class="cls-1" />
      <path
         id="path10"
         d="M51.14,15.58c-2.51,0-4.37-2.61-4.37-5.72s2.45-5.22,4.37-5.22,4.39,2.19,4.39,5.22-1.88,5.72-4.39,5.72m0-15.33c-4.27,0-8.76,3.46-8.76,9.76,0,5.78,3.85,9.9,8.76,9.9s8.78-4.12,8.78-9.9c0-6.3-4.49-9.76-8.78-9.76"
         class="cls-1" />
      <path
         id="path12"
         d="M71.18,8.14c-3.11-.47-5-.89-5-2.3,0-1.05.56-1.72,2-1.72a8.09,8.09,0,0,1,4.18,1.51l2.57-3A13.26,13.26,0,0,0,68.57,0c-4.43,0-7.21,2.65-7.21,6.09a5.36,5.36,0,0,0,4.86,5.57c2.71.42,4.64,1,4.64,2.36,0,1.08-1.14,1.66-2.4,1.66a6.39,6.39,0,0,1-4.74-2.3c-1.31,1.3-2.92,3-2.92,3a8.81,8.81,0,0,0,7.29,3.45c5,0,7.68-3.56,7.68-6.11a5.48,5.48,0,0,0-4.6-5.62"
         class="cls-1" />
      <path
         id="path14"
         d="M86,4.64c1.45,0,2.15.79,3.39,2.19L93,4.37C91.26,1.72,89.08.1,85.79.1c-4.68,0-8.6,4.33-8.6,9.95s3.92,10,8.6,10c3.29,0,5.47-1.62,7.25-4.27l-3.6-2.46c-1.24,1.41-1.94,2.2-3.39,2.2-2.4,0-4.32-2-4.32-5.43S83.64,4.64,86,4.64"
         class="cls-1" />
      <polygon
         id="polygon16"
         points="105.36 7.25 99.62 7.25 99.62 0.62 94.97 0.62 94.97 19.6 99.62 19.6 99.62 12.04 105.36 12.04 105.36 19.6 110 19.6 110 0.62 105.36 0.62 105.36 7.25"
         class="cls-1" />
      <path
         id="path18"
         d="M14,14.66,14,5.8a5.67,5.67,0,0,1,.92,1.14,6.23,6.23,0,0,1,.93,3.28,6.36,6.36,0,0,1-.93,3.26A6.58,6.58,0,0,1,14,14.66m-.87-2.59H6.18V8.32h6.94ZM4.39,13.48a6.19,6.19,0,0,1,0-6.54,6.13,6.13,0,0,1,.9-1.14l0,8.87a6.58,6.58,0,0,1-.93-1.19m10.54-8A6.79,6.79,0,0,0,13.12,4V7.35H6.18V4A6.73,6.73,0,0,0,4.39,5.43a7.13,7.13,0,0,0,0,9.59,6.49,6.49,0,0,0,1.79,1.44V13h6.94v3.45A6.79,6.79,0,0,0,14.93,15a7.23,7.23,0,0,0,1.85-4.8,7.13,7.13,0,0,0-1.85-4.77" />
      <path
         id="path20"
         d="M14.93,17.15a8.7,8.7,0,0,1-10.54,0,8.67,8.67,0,0,1,0-13.8A8.59,8.59,0,0,1,9.68,1.51a8.7,8.7,0,0,1,5.25,15.64m0-15.06a9.66,9.66,0,1,0,4.43,8.12,9.64,9.64,0,0,0-4.43-8.12" />
    </g>
  </g>
</svg>
