<?xml version="1.0" encoding="UTF-8" standalone="no"?>
<svg
   xmlns:dc="http://purl.org/dc/elements/1.1/"
   xmlns:cc="http://creativecommons.org/ns#"
   xmlns:rdf="http://www.w3.org/1999/02/22-rdf-syntax-ns#"
   xmlns:svg="http://www.w3.org/2000/svg"
   xmlns="http://www.w3.org/2000/svg"
   id="svg28"
   version="1.1"
   viewBox="0 0 110 26.47">
  <metadata
     id="metadata32">
    <rdf:RDF>
      <cc:Work
         rdf:about="">
        <dc:format>image/svg+xml</dc:format>
        <dc:type
           rdf:resource="http://purl.org/dc/dcmitype/StillImage" />
        <dc:title>brembo</dc:title>
      </cc:Work>
    </rdf:RDF>
  </metadata>
  <defs
     id="defs4">
    <style
       id="style2">.cls-1{fill:red;}</style>
  </defs>
  <title
     id="title6">brembo</title>
  <g
     data-name="Capa 2"
     id="Capa_2">
    <g
       data-name="Capa 1"
       id="Capa_1-2">
      <path
         id="path8"
         d="M55.8,13.86a1.56,1.56,0,0,1,3.1,0Zm1.51-4a5.77,5.77,0,0,0-3.65,1.3l2.79,4.58h6.63s0-.08,0-.13a5.76,5.76,0,0,0-5.78-5.75m-.06,8.37c-1,0-1.55-1.27-2.2-2.36l-2.31-3.78a5.7,5.7,0,0,0-1.21,3.52,5.78,5.78,0,0,0,11.35,1.49H59a1.89,1.89,0,0,1-1.78,1.12"
         class="cls-1" />
      <path
         id="path10"
         d="M47.05,10.06a2.53,2.53,0,0,0-1.85.8l3.42,5.59v-1.9a1,1,0,0,1,1-1h2V10.06Zm-2.55,2.55v8.7h4.12V18.87L44.55,12.2a2.47,2.47,0,0,0,0,.41"
         class="cls-1" />
      <path
         id="path12"
         d="M77.05,9.75a3.68,3.68,0,0,0-3.14,1.77,3.67,3.67,0,0,0-5.77-.65v-1H64.09l4.05,6.64V14.48a1.2,1.2,0,1,1,2.4,0v6.61h3.92V14.48a1.2,1.2,0,1,1,2.4,0v6.61h3.87V13.44a3.69,3.69,0,0,0-3.69-3.69m-13,11.34h4.05V18.95l-4.05-6.64Z"
         class="cls-1" />
      <path
         id="path14"
         d="M13.3,23.11A9.85,9.85,0,0,1,3.84,10.3L7.35,16c1.9,3.08,4.18,3.73,5.75,3.73a6.39,6.39,0,1,0-1.87-12.5L9.37,4.21a9.87,9.87,0,1,1,3.92,18.9M13.24,0A13.16,13.16,0,0,0,7.58,1.28a13.3,13.3,0,0,0-2.44,1.5l5.17,8.46A3.52,3.52,0,1,1,13.1,16.9c-1.43,0-2.52-1.07-3.32-2.37L3.52,4.27A13.22,13.22,0,1,0,13.24,0"
         class="cls-1" />
      <path
         id="path16"
         d="M38,9.7a5.79,5.79,0,0,0-2.47.56V5H31.3v1.4L36,14.19a2.05,2.05,0,1,1-.31,1.92L31.3,8.86V21.41h4.2v-.77A5.75,5.75,0,1,0,38,9.7"
         class="cls-1" />
      <path
         id="path18"
         d="M88.92,9.6a5.77,5.77,0,0,0-2.47.56V4.94h-4.2v1.4L87,14.09A2.05,2.05,0,1,1,86.68,16L82.25,8.76V21.3h4.2v-.77A5.75,5.75,0,1,0,88.92,9.6"
         class="cls-1" />
      <path
         id="path20"
         d="M100.82,9.8a5.78,5.78,0,0,0-3.66,1.3l2,3.19a2.06,2.06,0,1,1-.31,1.92L96.25,12A5.71,5.71,0,0,0,95,15.55a5.78,5.78,0,1,0,5.78-5.75"
         class="cls-1" />
      <path
         id="path22"
         d="M108.06,19.7h.27a1.4,1.4,0,0,0,.33,0,.23.23,0,0,0,0-.4c-.07,0-.12,0-.36,0h-.29Zm-.37-.77h.77a1.26,1.26,0,0,1,.42,0,.48.48,0,0,1,.3.47.47.47,0,0,1-.28.45.66.66,0,0,1-.2.06h0a1,1,0,0,1,.41.45l.22.36h-.44l-.26-.4c-.22-.33-.24-.36-.49-.36h-.07v.76h-.37Z"
         class="cls-1" />
      <path
         id="path24"
         d="M108.41,18.61a1.33,1.33,0,1,0,1.33,1.33,1.33,1.33,0,0,0-1.33-1.33m0,2.92A1.59,1.59,0,1,1,110,19.93a1.59,1.59,0,0,1-1.59,1.59"
         class="cls-1" />
    </g>
  </g>
</svg>
