<?xml version="1.0" encoding="UTF-8" standalone="no"?>
<svg
   xmlns:dc="http://purl.org/dc/elements/1.1/"
   xmlns:cc="http://creativecommons.org/ns#"
   xmlns:rdf="http://www.w3.org/1999/02/22-rdf-syntax-ns#"
   xmlns:svg="http://www.w3.org/2000/svg"
   xmlns="http://www.w3.org/2000/svg"
   xmlns:sodipodi="http://sodipodi.sourceforge.net/DTD/sodipodi-0.dtd"
   xmlns:inkscape="http://www.inkscape.org/namespaces/inkscape"
   viewBox="0 0 200 54.22"
   version="1.1"
   id="svg34"
   sodipodi:docname="continentalcontitech-0031001.svg"
   inkscape:version="0.92.0 r15299">
  <metadata
     id="metadata38">
    <rdf:RDF>
      <cc:Work
         rdf:about="">
        <dc:format>image/svg+xml</dc:format>
        <dc:type
           rdf:resource="http://purl.org/dc/dcmitype/StillImage" />
      </cc:Work>
    </rdf:RDF>
  </metadata>
  <sodipodi:namedview
     pagecolor="#ffffff"
     bordercolor="#666666"
     borderopacity="1"
     objecttolerance="10"
     gridtolerance="10"
     guidetolerance="10"
     inkscape:pageopacity="0"
     inkscape:pageshadow="2"
     inkscape:window-width="2560"
     inkscape:window-height="1377"
     id="namedview36"
     showgrid="false"
     inkscape:zoom="1.78"
     inkscape:cx="-82.58427"
     inkscape:cy="27.110001"
     inkscape:window-x="1912"
     inkscape:window-y="156"
     inkscape:window-maximized="1"
     inkscape:current-layer="svg34" />
  <defs
     id="defs4">
    <style
       id="style2">.cls-1{fill:#f69f21;}</style>
  </defs>
  <title
     id="title6">Continental Contitech</title>
  <g
     id="g850">
    <path
       style="fill:#ff9900;fill-opacity:1"
       inkscape:connector-curvature="0"
       id="path8"
       d="M 200,28.11 H 172.94 V 27.22 H 200 Z M 186.45,23 189,20.52 l 1.05,1.05 -2.74,2.33 a 5.86,5.86 0 0 0 -0.53,1 h -2 A 3.56,3.56 0 0 1 186.45,23 M 178,7.4 175.9,7.98 a 9.37,9.37 0 0 0 -1.36,0.64 c -0.42,0.27 -0.89,0.74 -0.91,1 l 1.8,0.41 a 8.66,8.66 0 0 1 0.86,-0.86 l 0.41,-0.2 1.5,-1.52 A 0.18,0.18 0 0 0 178,7.4 m 12.24,5 A 31.79,31.79 0 0 1 187.17,8.52 11.55,11.55 0 0 0 187.9,3 12.31,12.31 0 0 0 186.63,1.11 C 186.37,0.91 185.57,0 185.18,0 a 0.33,0.33 0 0 0 -0.19,0.05 l 0.11,1 c -1.08,0.69 -2.49,1.63 -3.77,2.57 0,0.36 0,0.91 0.06,1.11 a 2,2 0 0 0 0.66,0.39 17,17 0 0 1 2.46,-0.41 L 183,7 181.26,8.25 179.07,7.56 a 0.35,0.35 0 0 0 -0.36,0.11 l -1.61,1.74 a 0.44,0.44 0 0 0 -0.14,0.36 l -0.06,2 c 0,0 0,0.3 0,0.64 a 3.09,3.09 0 0 0 0.64,2.08 L 178.56,13 a 4.84,4.84 0 0 1 -0.44,-1.11 c 0,-0.05 0,-1.69 0,-1.69 l 1,-0.75 2.72,1.91 a 15.27,15.27 0 0 0 1.47,2.22 24.82,24.82 0 0 0 4,2.82 15.86,15.86 0 0 0 0.55,2.13 l 3.32,3.41 -2,2.46 a 2.53,2.53 0 0 0 -1.3,2 h 2.27 l 0.25,-1.3 2.71,-3 c 0.14,-0.17 0.14,-0.25 0.05,-0.5 L 192.39,19 a 4.66,4.66 0 0 0 1.22,-2.88 c 0,-2.41 -2.63,-3 -3.47,-3.71 m 4.27,4 A 9.26,9.26 0 0 0 193.8,14.7 c 0,0 0.11,-0.11 0.33,0 0.22,0.11 1.63,1.11 1.63,1.11 0.72,1.05 1.16,5.37 1.19,6.92 a 8.81,8.81 0 0 1 -2.22,-1.41 z" />
    <path
       style="fill:#ff9900;fill-opacity:1"
       inkscape:connector-curvature="0"
       id="path10"
       d="m 124.16,15.42 c 0,-1.66 -0.53,-3 -2,-3 -1.47,0 -2,1.3 -2,3 v 10.94 h 1.69 v 1.74 h -9.25 v -1.74 h 1.72 V 11.3 H 112.6 V 9.61 h 7.29 v 2.82 H 120 a 5.25,5.25 0 0 1 4.87,-3.18 4.78,4.78 0 0 1 4.9,3.85 16.43,16.43 0 0 1 0.25,3 v 10.26 h 2.22 v 1.74 h -8.06 z m -37.36,0 c 0,-1.66 -0.53,-3 -2,-3 -1.47,0 -2,1.3 -2,3 v 10.94 h 1.7 V 28.1 H 75.25 V 26.36 H 77 V 11.3 H 75.25 V 9.61 h 7.28 v 2.82 h 0.08 a 5.25,5.25 0 0 1 4.87,-3.18 4.78,4.78 0 0 1 4.9,3.85 16.43,16.43 0 0 1 0.25,3 v 10.26 h 2.22 V 28.1 H 86.8 Z M 140.06,11.3 V 25 a 1.05,1.05 0 0 0 1.19,1.17 3.55,3.55 0 0 0 1.08,-0.2 v 1.69 a 7.2,7.2 0 0 1 -3.58,0.69 c -2.88,0 -4.57,-1.41 -4.57,-4.4 V 11.3 h -2 V 10.05 C 134.41,8.31 137,6.31 139,4.63 h 1.08 v 5 h 2.83 V 11.3 Z M 24.62,0 c 0,0 4.46,4.46 6.51,6.76 V 8.5 A 14.29,14.29 0 0 0 21.57,4.79 C 13.24,4.79 8,11.08 8,18.86 c 0,7.78 5,14 13.57,14 a 13.28,13.28 0 0 0 9.64,-4.1 v 1.66 C 28.6,34 23.84,36.32 17.91,36.32 7.31,36.36 0,28.66 0,18.86 a 17.66,17.66 0 0 1 17.92,-17.48 20,20 0 0 1 6.7,1.11 z m 85.31,23.18 a 5.11,5.11 0 0 1 -4.07,1.72 c -1.69,0 -4.29,-0.94 -4.4,-5.23 h 9.89 c 0,-0.33 0.05,-1 0.05,-1.33 0,-5.21 -2.13,-9.08 -7.7,-9.08 -5.57,0 -8.45,4.29 -8.45,9.64 0,5.35 2.85,9.55 8.45,9.55 a 7.47,7.47 0 0 0 7.2,-4.35 z m -8.47,-5.32 c 0,-4.88 0.39,-6.7 2,-6.7 1.61,0 2,1.77 2.08,6.7 z M 19.8,18.8 c 0,-5.65 0.53,-8.14 2.43,-8.14 1.9,0 2.44,2.49 2.44,8.14 0,5.65 -0.53,8.14 -2.44,8.14 -1.91,0 -2.43,-2.49 -2.43,-8.14 m -6.87,0.05 c 0,5.59 3.43,10.14 9.3,10.14 5.87,0 9.31,-4.54 9.31,-10.14 0,-5.6 -3.43,-10.13 -9.3,-10.13 -5.87,0 -9.3,4.54 -9.3,10.14 m 31.71,-3.43 c 0,-1.66 -0.53,-3 -2,-3 -1.47,0 -2,1.3 -2,3 v 10.93 h 1.69 V 28.1 H 33.1 v -1.74 h 1.72 V 11.3 H 33.1 V 9.61 h 7.28 v 2.82 h 0.08 a 5.25,5.25 0 0 1 4.87,-3.18 4.79,4.79 0 0 1 4.9,3.85 16.71,16.71 0 0 1 0.25,3 v 10.26 h 2.22 v 1.74 h -8.05 z m 21,-10.72 c 0,1.64 1.47,2.71 3.58,2.71 2.11,0 3.57,-1.08 3.57,-2.71 C 72.8,3.08 71.28,2 69.17,2 67.06,2 65.6,3.07 65.6,4.71 M 60.54,11.3 V 25 a 1.05,1.05 0 0 0 1.19,1.17 3.53,3.53 0 0 0 1.08,-0.2 v 1.69 a 7.2,7.2 0 0 1 -3.57,0.69 c -2.88,0 -4.57,-1.41 -4.57,-4.4 V 11.3 h -2 v -1.25 c 2.19,-1.74 4.74,-3.74 6.76,-5.43 h 1.08 v 5 h 2.27 v 1.68 z m 108,15.06 h 2.27 V 28.1 H 162.7 V 4.46 h -2 V 2.77 h 7.86 z M 153,18.94 a 1.73,1.73 0 0 0 -1.27,-0.39 c -1.74,0 -2.13,1.72 -2.13,3.49 0,1.77 0.53,3.16 2,3.16 a 1.8,1.8 0 0 0 1.38,-0.56 z m 0.25,7 h -0.09 a 5.47,5.47 0 0 1 -4.74,2.55 c -3,0 -4.9,-2.58 -4.9,-5.65 0,-3.71 2.63,-6.07 6.84,-6.07 a 7.26,7.26 0 0 1 2.63,0.39 V 16 a 3.15,3.15 0 0 0 -3.4,-3.43 5.34,5.34 0 0 0 -4.24,2.16 l -1,-1.25 a 8.75,8.75 0 0 1 7.37,-4.18 c 4.48,0 7.14,2.66 7.14,6.7 v 10.36 h 1.89 v 1.74 h -7.48 z m -88.7,2.22 v -1.8 h 1.69 V 11.3 H 64.52 V 9.61 h 7.53 v 16.75 h 1.72 v 1.74 z"
       class="cls-1" />
    <path
       inkscape:connector-curvature="0"
       id="path12"
       d="m 101.64,53.39 a 11.36,11.36 0 0 1 -4.65,0.8 c -5.72,0 -9.2,-3.58 -9.2,-9.07 0,-5.94 4.12,-9.52 9.63,-9.52 a 10.36,10.36 0 0 1 4.39,0.8 l -0.73,2.6 a 8.75,8.75 0 0 0 -3.53,-0.69 c -3.66,0 -6.31,2.3 -6.31,6.63 0,4 2.33,6.5 6.28,6.5 a 9.21,9.21 0 0 0 3.58,-0.67 z" />
    <path
       inkscape:connector-curvature="0"
       id="path14"
       d="m 116.27,47.29 c 0,4.79 -3.37,6.93 -6.69,6.93 a 6.3,6.3 0 0 1 -6.52,-6.71 c 0,-4.28 2.81,-6.9 6.74,-6.9 3.93,0 6.47,2.72 6.47,6.68 z m -9.81,0.14 c 0,2.51 1.23,4.41 3.24,4.41 2.01,0 3.18,-1.84 3.18,-4.47 0,-2 -0.91,-4.36 -3.16,-4.36 -2.25,0 -3.26,2.25 -3.26,4.41 z" />
    <path
       inkscape:connector-curvature="0"
       id="path16"
       d="m 119,44.78 c 0,-1.5 0,-2.75 -0.11,-3.88 h 2.89 l 0.16,2 H 122 a 4.7,4.7 0 0 1 4.15,-2.25 c 2.27,0 4.63,1.47 4.63,5.59 v 7.73 h -3.29 v -7.4 c 0,-1.87 -0.69,-3.29 -2.49,-3.29 a 2.76,2.76 0 0 0 -2.57,1.92 3.37,3.37 0 0 0 -0.14,1.07 v 7.65 H 119 Z" />
    <path
       inkscape:connector-curvature="0"
       id="path18"
       d="m 137.93,37.18 v 3.72 h 3.13 v 2.46 h -3.13 v 5.75 c 0,1.58 0.43,2.41 1.69,2.41 a 4.83,4.83 0 0 0 1.28,-0.16 l 0.05,2.51 a 7.22,7.22 0 0 1 -2.38,0.32 3.81,3.81 0 0 1 -2.84,-1.07 5.2,5.2 0 0 1 -1,-3.64 v -6.12 h -1.87 V 40.9 h 1.87 V 38 Z" />
    <path
       inkscape:connector-curvature="0"
       id="path20"
       d="m 143.55,53.92 v -13 h 3.31 v 13 z" />
    <path
       inkscape:connector-curvature="0"
       id="path22"
       d="m 154,38.65 h -5.13 V 35.9 h 13.61 v 2.75 h -5.19 V 53.92 H 154 Z" />
    <path
       inkscape:connector-curvature="0"
       id="path24"
       d="m 164.71,48.33 c 0.08,2.35 1.92,3.37 4,3.37 a 9.78,9.78 0 0 0 3.61,-0.59 l 0.48,2.27 a 12.25,12.25 0 0 1 -4.55,0.8 c -4.22,0 -6.71,-2.59 -6.71,-6.58 0,-3.61 2.19,-7 6.37,-7 4.18,0 5.62,3.48 5.62,6.34 a 8.22,8.22 0 0 1 -0.11,1.39 z m 5.72,-2.3 c 0,-1.2 -0.51,-3.18 -2.7,-3.18 -2,0 -2.89,1.84 -3,3.18 z" />
    <path
       inkscape:connector-curvature="0"
       id="path26"
       d="m 185.77,53.52 a 9.53,9.53 0 0 1 -3.69,0.67 c -4.06,0 -6.71,-2.59 -6.71,-6.63 0,-4.04 2.67,-7 7.25,-7 a 8.24,8.24 0 0 1 3.18,0.61 l -0.59,2.46 a 5.8,5.8 0 0 0 -2.49,-0.51 3.88,3.88 0 0 0 -4,4.22 3.86,3.86 0 0 0 4,4.2 6.41,6.41 0 0 0 2.59,-0.51 z" />
    <path
       inkscape:connector-curvature="0"
       id="path28"
       d="m 188.21,34.93 h 3.31 v 7.76 h 0.05 a 4.41,4.41 0 0 1 1.63,-1.5 4.46,4.46 0 0 1 2.25,-0.59 c 2.22,0 4.55,1.47 4.55,5.64 v 7.68 h -3.29 v -7.3 c 0,-1.9 -0.69,-3.32 -2.51,-3.32 a 2.68,2.68 0 0 0 -2.54,1.85 2.77,2.77 0 0 0 -0.14,1 v 7.78 h -3.31 z" />
    <path
       inkscape:connector-curvature="0"
       id="path30"
       d="M 143.55,38.65 V 35.9 h 3.31 v 2.75 z" />
  </g>
</svg>
