<?xml version="1.0" encoding="UTF-8" standalone="no"?>
<!-- Generator: Adobe Illustrator 14.0.0, SVG Export Plug-In . SVG Version: 6.00 Build 43363)  -->

<svg
   xmlns:dc="http://purl.org/dc/elements/1.1/"
   xmlns:cc="http://creativecommons.org/ns#"
   xmlns:rdf="http://www.w3.org/1999/02/22-rdf-syntax-ns#"
   xmlns:svg="http://www.w3.org/2000/svg"
   xmlns="http://www.w3.org/2000/svg"
   xmlns:sodipodi="http://sodipodi.sourceforge.net/DTD/sodipodi-0.dtd"
   xmlns:inkscape="http://www.inkscape.org/namespaces/inkscape"
   version="1.1"
   id="Layer_1"
   x="0px"
   y="0px"
   width="175.748"
   height="38.167999"
   viewBox="0 0 175.748 38.167999"
   enable-background="new 0 0 612 792"
   xml:space="preserve"
   sodipodi:docname="ferodo-0062001.svg"
   inkscape:version="0.92.0 r15299"><metadata
     id="metadata21"><rdf:RDF><cc:Work
         rdf:about=""><dc:format>image/svg+xml</dc:format><dc:type
           rdf:resource="http://purl.org/dc/dcmitype/StillImage" /><dc:title></dc:title></cc:Work></rdf:RDF></metadata><defs
     id="defs19" /><sodipodi:namedview
     pagecolor="#ffffff"
     bordercolor="#666666"
     borderopacity="1"
     objecttolerance="10"
     gridtolerance="10"
     guidetolerance="10"
     inkscape:pageopacity="0"
     inkscape:pageshadow="2"
     inkscape:window-width="1920"
     inkscape:window-height="1017"
     id="namedview17"
     showgrid="false"
     fit-margin-top="0"
     fit-margin-left="0"
     fit-margin-right="0"
     fit-margin-bottom="0"
     inkscape:zoom="1.6856283"
     inkscape:cx="119.91918"
     inkscape:cy="82.996298"
     inkscape:window-x="-8"
     inkscape:window-y="-8"
     inkscape:window-maximized="1"
     inkscape:current-layer="Layer_1" /><g
     id="g33"
     transform="translate(-217.504,-370.598)"><polygon
       points="367.732,408.766 367.732,370.598 393.252,370.598 393.252,408.766 "
       id="polygon4"
       style="clip-rule:evenodd;fill:#d2382b;fill-rule:evenodd" /><polygon
       points="217.504,408.766 217.504,370.598 243.022,370.598 243.022,408.766 "
       id="polygon6"
       style="clip-rule:evenodd;fill:#d2382b;fill-rule:evenodd" /><polygon
       points="245.02,408.766 245.02,370.599 365.957,370.599 365.957,408.766 "
       id="polygon10"
       style="clip-rule:evenodd;fill-rule:evenodd" /><path
       d="m 318.926,385.725 c -1.141,-1.875 -2.553,-3.356 -4.371,-4.586 -2.516,-1.515 -5.58,-1.582 -8.16,-0.178 -2.106,1.008 -3.713,2.583 -4.763,4.67 l -0.01,0.019 c -1.068,1.835 -1.26,3.961 -0.538,5.959 0.945,2.259 2.292,4.115 4.147,5.714 2.783,2.117 6.566,2.328 9.568,0.537 2.138,-1.42 3.741,-3.235 4.885,-5.531 l 0.013,-0.03 c 0.879,-2.127 0.641,-4.487 -0.646,-6.395 z m -11.6,3.705 c -0.008,-1.425 1.018,-2.686 2.415,-2.966 1.397,-0.28 2.831,0.487 3.372,1.805 0.559,1.315 0.095,2.878 -1.09,3.675 -1.187,0.797 -2.809,0.638 -3.815,-0.375 -0.575,-0.579 -0.882,-1.323 -0.882,-2.139 z m 51.411,-3.013 c -1.14,-1.875 -2.552,-3.357 -4.37,-4.586 -2.516,-1.516 -5.58,-1.583 -8.16,-0.179 -2.106,1.008 -3.714,2.584 -4.763,4.67 l -0.01,0.018 c -1.068,1.836 -1.261,3.961 -0.539,5.959 0.946,2.259 2.293,4.116 4.148,5.714 2.783,2.117 6.565,2.328 9.567,0.537 2.138,-1.418 3.741,-3.234 4.885,-5.531 l 0.014,-0.03 c 0.879,-2.127 0.64,-4.486 -0.647,-6.395 z m -11.598,3.704 c -0.009,-1.425 1.019,-2.686 2.416,-2.965 1.397,-0.279 2.83,0.488 3.372,1.807 0.558,1.315 0.093,2.877 -1.093,3.674 -1.185,0.797 -2.807,0.637 -3.814,-0.375 -0.576,-0.581 -0.882,-1.325 -0.881,-2.141 z m -15.927,9 0.038,-0.002 c 3.409,-0.836 6.091,-3.279 7.242,-6.596 0.786,-2.189 0.582,-4.513 -0.571,-6.533 -1.618,-3.183 -4.768,-5.207 -8.334,-5.359 h -7.98 c -0.09,0 -0.173,0.036 -0.233,0.102 -0.061,0.066 -0.091,0.151 -0.082,0.241 0.419,5.108 0.454,9.781 0.113,14.895 l -0.223,2.717 c -0.007,0.088 0.021,0.172 0.078,0.236 0.058,0.066 0.137,0.104 0.224,0.107 l 4.718,0.213 z m -3.337,-12.787 c 1.611,-0.197 3.176,0.535 4.057,1.896 0.558,0.976 0.557,2.149 -0.005,3.123 -0.362,0.695 -0.932,1.205 -1.662,1.488 -0.731,0.283 -1.495,0.289 -2.23,0.02 l -0.251,-0.088 c 0.203,-2.207 0.232,-4.227 0.091,-6.439 z m -35.337,11.908 c 0.082,0.168 0.201,0.299 0.36,0.395 0.083,0.053 0.173,0.076 0.271,0.074 h 6.516 c 0.112,0 0.213,-0.057 0.271,-0.152 l 0.081,-0.135 c 0.063,-0.105 0.061,-0.236 -0.007,-0.338 l -3.191,-4.83 c -0.069,-0.089 -0.097,-0.196 -0.081,-0.307 0.015,-0.111 0.072,-0.207 0.163,-0.273 1.922,-1.374 2.816,-3.771 2.264,-6.068 -0.918,-3.083 -3.215,-5.448 -6.269,-6.457 l -0.327,-0.102 h -10.692 c -0.089,0 -0.171,0.035 -0.232,0.1 -0.061,0.065 -0.091,0.149 -0.084,0.238 0.309,4.634 0.326,8.863 0.056,13.499 l -0.338,4.271 c -0.008,0.09 0.021,0.174 0.082,0.24 0.061,0.066 0.141,0.102 0.231,0.102 l 6.066,0.064 c 0.086,0.002 0.165,-0.029 0.227,-0.092 0.061,-0.061 0.094,-0.139 0.094,-0.225 v -2.521 c 10e-4,-0.124 0.048,-0.235 0.137,-0.322 0.088,-0.086 0.202,-0.131 0.325,-0.129 h 2.118 c 0.138,-0.012 0.269,0.052 0.345,0.167 z m -4.255,-12.911 c 1.256,-0.128 2.446,0.189 3.471,0.926 0.422,0.315 0.676,0.777 0.714,1.303 0.038,0.525 -0.146,1.02 -0.518,1.392 -0.985,0.998 -2.36,1.429 -3.738,1.174 z M 279.079,394 c 0.014,-0.094 -0.012,-0.185 -0.074,-0.256 -0.062,-0.071 -0.148,-0.11 -0.243,-0.109 l -5.792,0.068 v -1.719 h 5.667 c 0.093,0 0.179,-0.039 0.24,-0.11 0.061,-0.071 0.087,-0.161 0.073,-0.253 l -0.645,-4.372 c -0.011,-0.078 -0.048,-0.144 -0.107,-0.194 -0.059,-0.051 -0.13,-0.077 -0.208,-0.077 l -4.75,0.018 v -1.664 h 5.795 c 0.095,0 0.181,-0.04 0.242,-0.112 0.061,-0.072 0.086,-0.164 0.071,-0.257 l -0.825,-4.949 c -0.012,-0.075 -0.049,-0.14 -0.107,-0.189 -0.058,-0.049 -0.127,-0.075 -0.204,-0.076 l -11.352,-0.068 c -0.089,0 -0.171,0.034 -0.232,0.099 -0.061,0.065 -0.092,0.148 -0.087,0.237 0.266,4.66 0.238,8.913 -0.089,13.568 l -0.393,4.286 c -0.009,0.09 0.02,0.174 0.08,0.24 0.06,0.068 0.142,0.104 0.232,0.105 l 11.761,0.137 c 0.078,0 0.149,-0.025 0.209,-0.076 0.06,-0.051 0.097,-0.117 0.108,-0.193 z m -28.125,3.441 c -0.007,0.09 0.023,0.174 0.084,0.238 0.061,0.066 0.143,0.102 0.232,0.102 h 5.639 c 0.086,0 0.164,-0.031 0.224,-0.092 0.061,-0.061 0.093,-0.139 0.093,-0.225 v -5.183 h 6.014 c 0.091,0 0.174,-0.037 0.235,-0.104 0.061,-0.067 0.09,-0.153 0.081,-0.244 l -0.436,-4.528 c -0.008,-0.08 -0.043,-0.15 -0.103,-0.204 -0.059,-0.054 -0.132,-0.083 -0.213,-0.083 h -5.006 v -2.011 h 6.457 c 0.092,0 0.177,-0.039 0.238,-0.108 0.061,-0.07 0.088,-0.159 0.076,-0.25 l -0.629,-4.869 c -0.01,-0.078 -0.046,-0.145 -0.105,-0.197 -0.06,-0.052 -0.131,-0.079 -0.209,-0.079 H 251.27 c -0.09,0 -0.173,0.036 -0.234,0.103 -0.061,0.066 -0.09,0.151 -0.083,0.241 0.435,5.075 0.498,9.717 0.198,14.803 z"
       id="path12"
       inkscape:connector-curvature="0"
       style="clip-rule:evenodd;fill:#ffffff;fill-rule:evenodd" /></g></svg>