<?xml version="1.0" encoding="UTF-8" standalone="no"?>
<!-- Generator: Adobe Illustrator 22.0.1, SVG Export Plug-In . SVG Version: 6.00 Build 0)  -->

<svg
   xmlns:dc="http://purl.org/dc/elements/1.1/"
   xmlns:cc="http://creativecommons.org/ns#"
   xmlns:rdf="http://www.w3.org/1999/02/22-rdf-syntax-ns#"
   xmlns:svg="http://www.w3.org/2000/svg"
   xmlns="http://www.w3.org/2000/svg"
   xmlns:xlink="http://www.w3.org/1999/xlink"
   xmlns:sodipodi="http://sodipodi.sourceforge.net/DTD/sodipodi-0.dtd"
   xmlns:inkscape="http://www.inkscape.org/namespaces/inkscape"
   version="1.1"
   id="svg10"
   x="0px"
   y="0px"
   viewBox="0 0 498 103.00001"
   xml:space="preserve"
   sodipodi:docname="Lucas-0020001.svg"
   width="498"
   height="103.00001"
   inkscape:version="0.92.0 r15299"><metadata
     id="metadata33"><rdf:RDF><cc:Work
         rdf:about=""><dc:format>image/svg+xml</dc:format><dc:type
           rdf:resource="http://purl.org/dc/dcmitype/StillImage" /><dc:title></dc:title></cc:Work></rdf:RDF></metadata><defs
     id="defs31" /><sodipodi:namedview
     pagecolor="#ffffff"
     bordercolor="#666666"
     borderopacity="1"
     objecttolerance="10"
     gridtolerance="10"
     guidetolerance="10"
     inkscape:pageopacity="0"
     inkscape:pageshadow="2"
     inkscape:window-width="640"
     inkscape:window-height="480"
     id="namedview29"
     showgrid="false"
     fit-margin-top="0"
     fit-margin-left="0"
     fit-margin-right="0"
     fit-margin-bottom="0"
     inkscape:zoom="0.472"
     inkscape:cx="249"
     inkscape:cy="51.9"
     inkscape:window-x="0"
     inkscape:window-y="0"
     inkscape:window-maximized="0"
     inkscape:current-layer="svg10" /><style
     type="text/css"
     id="style2">
	.st0{clip-path:url(#SVGID_2_);}
	.st1{fill:#FFFFFF;}
	.st2{fill:#008B3E;}
</style><g
     id="g26"
     transform="translate(-1,-198.89999)"><defs
       id="defs5"><rect
         id="SVGID_1_"
         x="0.5"
         y="0.89999998"
         width="499"
         height="499" /></defs><clipPath
       id="SVGID_2_"><use
         xlink:href="#SVGID_1_"
         style="overflow:visible"
         id="use7"
         x="0"
         y="0"
         width="100%"
         height="100%" /></clipPath><g
       class="st0"
       clip-path="url(#SVGID_2_)"
       id="g24"><rect
         x="1"
         y="198.89999"
         class="st1"
         width="498"
         height="103"
         id="rect10"
         style="fill:#ffffff" /><polygon
         class="st2"
         points="423.4,224.7 449.2,198.9 1,198.9 1,301.9 345.9,301.9 409.4,238.5 409.4,263.6 434.2,263.6 395.7,301.9 499,301.9 499,198.9 447.4,250.5 423.4,250.5 "
         id="polygon12"
         style="fill:#008b3e" /><path
         class="st1"
         d="m 79,240.9 c 0.2,0 10.6,-0.1 10.6,0 v 20 c 0,3.2 0.6,5.4 3.5,5.4 3,0 3.5,-2 3.4,-5.4 0,-0.1 0,-19.4 0,-20 0,-0.1 10.6,0 10.7,0 0,8.4 0.1,21.9 0,22 0,7.5 -6.5,12.9 -14.1,12.9 -7.8,0 -14.2,-5.3 -14.2,-12.9 0.1,-0.1 0.1,-21.9 0.1,-22"
         id="path14"
         inkscape:connector-curvature="0"
         style="fill:#ffffff" /><path
         class="st1"
         d="m 199.4,242.8 c 0,0 -4.7,-2.9 -11.3,-2.7 -13.4,0.2 -13.3,10.7 -13.3,11 -0.2,6.1 4.7,9.2 5.4,9.6 2,1.1 5.8,2.1 6,2.2 2.5,0.5 2.8,2.1 2.8,2.5 -0.2,2.7 -4.6,1.9 -5.5,1.8 -2.1,-0.3 -6.9,-1.9 -7.1,-2.3 0,-0.1 -2.6,7.7 -2.6,7.7 0,0 5.9,3.6 12.4,3.4 14.1,-0.6 13.8,-11.1 13.9,-11.6 0.4,-7.1 -7.2,-9.6 -7.4,-9.8 -0.3,-0.2 -3.9,-1.2 -4.3,-1.4 -1.4,-0.6 -3.1,-0.9 -3.1,-2.6 0,-1.9 2.4,-2.1 4.3,-1.8 4,0.6 6.9,2 6.9,2 z"
         id="path16"
         inkscape:connector-curvature="0"
         style="fill:#ffffff" /><polygon
         class="st1"
         points="77.8,274.9 77.8,264.2 62.5,264.2 62.5,224.9 50.8,224.9 50.8,274.9 "
         id="polygon18"
         style="fill:#ffffff" /><path
         class="st1"
         d="m 139,265.7 c -3.2,10.9 -13.8,10.2 -13.8,10.2 -15.4,-0.2 -14.7,-18.5 -14.7,-18.5 0.8,-18.9 15,-17.3 15,-17.3 12,-0.1 13.5,9.9 13.5,9.9 l -8.3,3.7 -1.4,-2.5 c -1.6,-2.6 -3.8,-2.2 -3.8,-2.2 -3.9,0.3 -3.8,9.1 -3.8,9.1 0,0 0,8.5 3.7,8.8 -0.1,0 2.2,0.4 4,-2.1 l 1.4,-2.6 c -0.1,0.2 8.2,3.5 8.2,3.5"
         id="path20"
         inkscape:connector-curvature="0"
         style="fill:#ffffff" /><path
         class="st1"
         d="m 170.8,240.8 h -11.1 v 3.4 c 0,0 -2.8,-4 -8,-4.2 0,0 -9.8,-0.5 -10.5,17.2 0,0 -1,17.3 9.5,18.7 0,0 5.5,0.9 9.1,-4.7 v 3.6 h 11 z m -14.9,25 c -2.8,0.1 -4.1,-3.4 -4.1,-7.7 0,-4.3 1.6,-7.7 4.1,-7.7 2.6,-0.1 4.1,3.5 4.1,7.7 0.1,4.3 -1.3,7.7 -4.1,7.7"
         id="path22"
         inkscape:connector-curvature="0"
         style="fill:#ffffff" /></g></g></svg>