<?xml version="1.0" encoding="UTF-8" standalone="no"?>
<svg
   xmlns:dc="http://purl.org/dc/elements/1.1/"
   xmlns:cc="http://creativecommons.org/ns#"
   xmlns:rdf="http://www.w3.org/1999/02/22-rdf-syntax-ns#"
   xmlns:svg="http://www.w3.org/2000/svg"
   xmlns="http://www.w3.org/2000/svg"
   id="svg218"
   viewBox="0 0 5921.3926 787.56158"
   style="clip-rule:evenodd;fill-rule:evenodd;image-rendering:optimizeQuality;shape-rendering:geometricPrecision;text-rendering:geometricPrecision"
   version="1.1"
   height="0.78770334in"
   width="5.9217367in"
   xml:space="preserve"><metadata
     id="metadata222"><rdf:RDF><cc:Work
         rdf:about=""><dc:format>image/svg+xml</dc:format><dc:type
           rdf:resource="http://purl.org/dc/dcmitype/StillImage" /><dc:title></dc:title></cc:Work></rdf:RDF></metadata><defs
     id="defs4"><style
       id="style2"
       type="text/css"><![CDATA[
    .str0 {stroke:#214174;stroke-width:33.315}
    .fil3 {fill:none;fill-rule:nonzero}
    .fil1 {fill:#214174}
    .fil48 {fill:#1A5BA4;fill-rule:nonzero}
    .fil49 {fill:#1A5CA5;fill-rule:nonzero}
    .fil50 {fill:#1A5DA6;fill-rule:nonzero}
    .fil47 {fill:#1B5BA2;fill-rule:nonzero}
    .fil41 {fill:#1C579B;fill-rule:nonzero}
    .fil42 {fill:#1C579C;fill-rule:nonzero}
    .fil43 {fill:#1C589E;fill-rule:nonzero}
    .fil44 {fill:#1C599F;fill-rule:nonzero}
    .fil45 {fill:#1C59A0;fill-rule:nonzero}
    .fil46 {fill:#1C5AA1;fill-rule:nonzero}
    .fil39 {fill:#1D5699;fill-rule:nonzero}
    .fil40 {fill:#1D569A;fill-rule:nonzero}
    .fil35 {fill:#1E5394;fill-rule:nonzero}
    .fil36 {fill:#1E5495;fill-rule:nonzero}
    .fil37 {fill:#1E5497;fill-rule:nonzero}
    .fil38 {fill:#1E5598;fill-rule:nonzero}
    .fil30 {fill:#1F508E;fill-rule:nonzero}
    .fil31 {fill:#1F508F;fill-rule:nonzero}
    .fil32 {fill:#1F5191;fill-rule:nonzero}
    .fil33 {fill:#1F5292;fill-rule:nonzero}
    .fil34 {fill:#1F5293;fill-rule:nonzero}
    .fil18 {fill:#20487F;fill-rule:nonzero}
    .fil19 {fill:#204881;fill-rule:nonzero}
    .fil20 {fill:#204982;fill-rule:nonzero}
    .fil21 {fill:#204A83;fill-rule:nonzero}
    .fil22 {fill:#204A84;fill-rule:nonzero}
    .fil23 {fill:#204B86;fill-rule:nonzero}
    .fil24 {fill:#204C87;fill-rule:nonzero}
    .fil25 {fill:#204C88;fill-rule:nonzero}
    .fil26 {fill:#204D89;fill-rule:nonzero}
    .fil27 {fill:#204E8A;fill-rule:nonzero}
    .fil28 {fill:#204E8C;fill-rule:nonzero}
    .fil29 {fill:#204F8D;fill-rule:nonzero}
    .fil4 {fill:#213D6B;fill-rule:nonzero}
    .fil5 {fill:#213E6D;fill-rule:nonzero}
    .fil6 {fill:#213E6E;fill-rule:nonzero}
    .fil7 {fill:#213F6F;fill-rule:nonzero}
    .fil8 {fill:#214071;fill-rule:nonzero}
    .fil9 {fill:#214173;fill-rule:nonzero}
    .fil0 {fill:#214174;fill-rule:nonzero}
    .fil10 {fill:#214275;fill-rule:nonzero}
    .fil11 {fill:#214376;fill-rule:nonzero}
    .fil12 {fill:#214478;fill-rule:nonzero}
    .fil13 {fill:#214479;fill-rule:nonzero}
    .fil14 {fill:#21457A;fill-rule:nonzero}
    .fil15 {fill:#21467C;fill-rule:nonzero}
    .fil16 {fill:#21467D;fill-rule:nonzero}
    .fil17 {fill:#21477E;fill-rule:nonzero}
    .fil51 {fill:#265FA8;fill-rule:nonzero}
    .fil52 {fill:#2D63AA;fill-rule:nonzero}
    .fil53 {fill:#3467AD;fill-rule:nonzero}
    .fil54 {fill:#3F69AE;fill-rule:nonzero}
    .fil55 {fill:#436DB1;fill-rule:nonzero}
    .fil56 {fill:#4D70B3;fill-rule:nonzero}
    .fil57 {fill:#5275B5;fill-rule:nonzero}
    .fil2 {fill:#52AB4D;fill-rule:nonzero}
    .fil58 {fill:#5B79B8;fill-rule:nonzero}
    .fil59 {fill:#617DBB;fill-rule:nonzero}
    .fil60 {fill:#6981BD;fill-rule:nonzero}
    .fil61 {fill:#6E86C0;fill-rule:nonzero}
    .fil62 {fill:#748AC2;fill-rule:nonzero}
    .fil63 {fill:#7B8FC6;fill-rule:nonzero}
    .fil64 {fill:#8193C8;fill-rule:nonzero}
    .fil65 {fill:#899ACB;fill-rule:nonzero}
    .fil66 {fill:#8E9ECE;fill-rule:nonzero}
    .fil67 {fill:#96A4D1;fill-rule:nonzero}
    .fil68 {fill:#9DAAD4;fill-rule:nonzero}
    .fil69 {fill:#A5B0D7;fill-rule:nonzero}
    .fil70 {fill:#ACB6DA;fill-rule:nonzero}
    .fil71 {fill:#B3BDDE;fill-rule:nonzero}
    .fil72 {fill:#BFC6E4;fill-rule:nonzero}
    .fil73 {fill:#C5CDE8;fill-rule:nonzero}
    .fil74 {fill:#CFD4EB;fill-rule:nonzero}
    .fil75 {fill:#D6DBEE;fill-rule:nonzero}
    .fil76 {fill:#E0E3F2;fill-rule:nonzero}
    .fil77 {fill:#E8EAF5;fill-rule:nonzero}
    .fil78 {fill:#F3F2F8;fill-rule:nonzero}
   ]]></style></defs><g
     transform="translate(-1661,-210.41693)"
     id="g345"><polygon
       style="fill:#214174;fill-rule:nonzero"
       id="polygon9"
       points="2089,979 2167,979 2414,549 2416,549 2402,979 2597,979 2602,232 2409,232 2185,631 2097,232 1906,232 1661,979 1854,979 1984,549 1986,549 "
       class="fil0" /><polygon
       style="fill:#214174;fill-rule:nonzero"
       id="polygon11"
       points="3089,979 3115,814 2884,814 2905,685 3123,685 3149,521 2931,521 2950,396 3181,396 3207,232 2782,232 2664,979 "
       class="fil0" /><path
       style="fill:#214174;fill-rule:nonzero"
       id="path13"
       d="m 3843,250 c -54,-24 -109,-38 -171,-38 -105,0 -218,46 -303,121 -83,73 -137,171 -153,273 -18,111 5,208 75,282 66,70 159,110 263,110 60,0 109,-15 177,-35 l 37,-233 c -48,49 -117,79 -180,79 -121,0 -189,-85 -170,-203 18,-116 113,-207 232,-207 66,0 126,29 157,82 l 37,-233 v 0 z"
       class="fil0" /><path
       style="fill:#214174"
       id="path15"
       d="m 4282,700 h -161 l 118,-238 h 2 l 42,238 v 0 z m 29,149 28,130 h 207 L 4383,232 h -212 l -406,747 h 206 l 72,-130 h 267 v 0 z"
       class="fil1" /><polygon
       style="fill:#52ab4d;fill-rule:nonzero"
       id="polygon17"
       points="4829,677 4783,968 4590,968 4707,227 5133,227 5107,390 4874,390 4854,514 5066,514 5040,677 "
       class="fil2" /><polygon
       style="fill:none;fill-rule:nonzero;stroke:#214174;stroke-width:33.31499863"
       id="polygon19"
       points="4829,677 4783,968 4590,968 4707,227 5133,227 5107,390 4874,390 4854,514 5066,514 5040,677 "
       class="fil3 str0" /><polygon
       style="fill:#52ab4d;fill-rule:nonzero"
       id="polygon21"
       points="5315,968 5122,968 5240,227 5432,227 "
       class="fil2" /><polygon
       style="fill:none;fill-rule:nonzero;stroke:#214174;stroke-width:33.31499863"
       id="polygon23"
       points="5315,968 5122,968 5240,227 5432,227 "
       class="fil3 str0" /><polygon
       style="fill:#52ab4d;fill-rule:nonzero"
       id="polygon25"
       points="5558,227 5750,227 5659,805 5890,805 5864,968 5440,968 "
       class="fil2" /><polygon
       style="fill:none;fill-rule:nonzero;stroke:#214174;stroke-width:33.31499863"
       id="polygon27"
       points="5558,227 5750,227 5659,805 5890,805 5864,968 5440,968 "
       class="fil3 str0" /><polygon
       style="fill:#52ab4d;fill-rule:nonzero"
       id="polygon29"
       points="5933,227 6444,227 6418,390 6259,390 6167,968 5975,968 6066,390 5907,390 "
       class="fil2" /><polygon
       style="fill:none;fill-rule:nonzero;stroke:#214174;stroke-width:33.31499863"
       id="polygon31"
       points="5933,227 6444,227 6418,390 6259,390 6167,968 5975,968 6066,390 5907,390 "
       class="fil3 str0" /><polygon
       style="fill:#52ab4d;fill-rule:nonzero"
       id="polygon33"
       points="6634,677 6614,805 6843,805 6817,968 6396,968 6513,227 6935,227 6909,390 6680,390 6660,514 6877,514 6852,677 "
       class="fil2" /><polygon
       style="fill:none;fill-rule:nonzero;stroke:#214174;stroke-width:33.31499863"
       id="polygon35"
       points="6634,677 6614,805 6843,805 6817,968 6396,968 6513,227 6935,227 6909,390 6680,390 6660,514 6877,514 6852,677 "
       class="fil3 str0" /><path
       style="fill:#52ab4d;fill-rule:nonzero"
       id="path37"
       d="m 7193,559 h 19 c 63,0 135,-12 148,-92 13,-81 -56,-92 -119,-92 h -19 l -29,185 z m 359,408 H 7312 L 7175,682 h -2 l -45,285 h -192 l 117,-740 h 288 c 146,0 246,70 221,228 -16,102 -87,190 -195,209 z"
       class="fil2" /><path
       style="fill:none;fill-rule:nonzero;stroke:#214174;stroke-width:33.31499863"
       id="path39"
       d="m 7193,559 h 19 c 63,0 135,-12 148,-92 13,-81 -56,-92 -119,-92 h -19 l -29,185 m 359,408 H 7312 L 7175,683 h -2 l -45,285 h -192 l 117,-740 h 288 c 146,0 246,70 221,228 -16,102 -87,190 -195,209 l 185,303"
       class="fil3 str0" /></g></svg>