<?xml version="1.0" encoding="UTF-8" standalone="no"?>
<svg
   xmlns:dc="http://purl.org/dc/elements/1.1/"
   xmlns:cc="http://creativecommons.org/ns#"
   xmlns:rdf="http://www.w3.org/1999/02/22-rdf-syntax-ns#"
   xmlns:svg="http://www.w3.org/2000/svg"
   xmlns="http://www.w3.org/2000/svg"
   xmlns:sodipodi="http://sodipodi.sourceforge.net/DTD/sodipodi-0.dtd"
   xmlns:inkscape="http://www.inkscape.org/namespaces/inkscape"
   id="CMYK_TM"
   data-name="CMYK TM"
   viewBox="0 0 588.87 166.19"
   version="1.1"
   sodipodi:docname="Mobil-1013001.svg"
   inkscape:version="0.92.0 r15299">
  <metadata
     id="metadata27">
    <rdf:RDF>
      <cc:Work
         rdf:about="">
        <dc:format>image/svg+xml</dc:format>
        <dc:type
           rdf:resource="http://purl.org/dc/dcmitype/StillImage" />
        <dc:title>Mobil_4C-TM</dc:title>
      </cc:Work>
    </rdf:RDF>
  </metadata>
  <sodipodi:namedview
     pagecolor="#ffffff"
     bordercolor="#666666"
     borderopacity="1"
     objecttolerance="10"
     gridtolerance="10"
     guidetolerance="10"
     inkscape:pageopacity="0"
     inkscape:pageshadow="2"
     inkscape:window-width="1920"
     inkscape:window-height="1017"
     id="namedview25"
     showgrid="false"
     inkscape:zoom="0.48227962"
     inkscape:cx="294.435"
     inkscape:cy="83.095001"
     inkscape:window-x="-8"
     inkscape:window-y="-8"
     inkscape:window-maximized="1"
     inkscape:current-layer="CMYK_TM" />
  <defs
     id="defs4">
    <style
       id="style2">.cls-1{fill:#035fa9;}.cls-2{fill:#dc2131;}</style>
  </defs>
  <title
     id="title6">Mobil_4C-TM</title>
  <g
     id="g37">
    <polyline
       id="polyline8"
       points="0 0 52.71 0 82.5 99.91 82.95 99.91 113.2 0 164.53 0 164.53 162.69 130.62 162.69 130.62 47.66 130.16 47.66 97.62 162.69 66.46 162.69 34.37 47.66 33.91 47.66 33.91 162.69 0 162.69 0 0"
       class="cls-1" />
    <rect
       id="rect10"
       height="32.08"
       width="33.91"
       x="458.15"
       class="cls-1" />
    <rect
       id="rect12"
       height="119.16"
       width="33.91"
       y="43.53"
       x="458.15"
       class="cls-1" />
    <rect
       id="rect14"
       height="162.7"
       width="33.92"
       x="510.85"
       class="cls-1" />
    <path
       id="path16"
       transform="translate(0 0)"
       d="M240.08,132.07a28.92,28.92,0,1,0-28.91-28.92,28.92,28.92,0,0,0,28.91,28.92m-63-28.95a63.08,63.08,0,1,1,63.08,63.07A63.08,63.08,0,0,1,177.07,103.12Z"
       class="cls-2" />
    <path
       id="path18"
       transform="translate(0 0)"
       d="M380.65,132.07a28.92,28.92,0,1,0-28.92-28.92,28.92,28.92,0,0,0,28.92,28.92m-63.2,30.62V0h33.91V52.7A48.4,48.4,0,0,1,383.9,40.79c34.38,0,60,29.1,60,62.56s-25.9,62.1-60,62.1c-12.83,0-23.83-3.67-32.54-13.29v10.53Z"
       class="cls-1" />
    <path
       id="path20"
       transform="translate(0 0)"
       d="M566.31,16.27h-3.39V2.88H558V0h13.24V2.88h-4.93Z"
       class="cls-1" />
    <path
       id="path22"
       transform="translate(0 0)"
       d="M588.87,16.27H585.7V2.68h-.05l-3,13.59h-3.33l-3-13.59h0V16.27H573.1V0h5l3,12.83h0L584,0h4.92Z"
       class="cls-1" />
  </g>
</svg>
