<?xml version="1.0" encoding="UTF-8" standalone="no"?>
<svg
   xmlns:dc="http://purl.org/dc/elements/1.1/"
   xmlns:cc="http://creativecommons.org/ns#"
   xmlns:rdf="http://www.w3.org/1999/02/22-rdf-syntax-ns#"
   xmlns:svg="http://www.w3.org/2000/svg"
   xmlns="http://www.w3.org/2000/svg"
   id="svg12"
   version="1.1"
   viewBox="0 0 187.08799 30.048999"
   height="389.72845"
   width="2426.4873">
  <metadata
     id="metadata18">
    <rdf:RDF>
      <cc:Work
         rdf:about="">
        <dc:format>image/svg+xml</dc:format>
        <dc:type
           rdf:resource="http://purl.org/dc/dcmitype/StillImage" />
        <dc:title></dc:title>
      </cc:Work>
    </rdf:RDF>
  </metadata>
  <defs
     id="defs16" />
  <g
     transform="translate(-2.834,-81.354)"
     id="g27">
    <path
       style="clip-rule:evenodd;fill-rule:evenodd"
       id="path4"
       d="m 66.005,82.401 c -7.701,0 -13.944,6.244 -13.944,13.944 0,7.701 6.243,13.944 13.944,13.944 7.701,0 13.944,-6.243 13.944,-13.944 0,-7.7 -6.243,-13.944 -13.944,-13.944 z m 0,22.56 a 8.616,8.616 0 1 1 0,-17.23 8.616,8.616 0 0 1 0,17.23 z m 67.513,-22.56 c -7.701,0 -13.943,6.244 -13.943,13.944 0,7.701 6.242,13.944 13.943,13.944 7.701,0 13.945,-6.243 13.945,-13.944 0,-7.7 -6.244,-13.944 -13.945,-13.944 z m 0,22.56 a 8.616,8.616 0 0 1 0,-17.231 8.616,8.616 0 1 1 0,17.231 z m 20.24,-0.52 V 98.59 h 9.621 l -1.443,-5.451 h -8.178 v -5.05 h 6.734 l -1.523,-5.451 h -10.5 v 27.255 h 18.115 l -1.522,-5.452 z m 7.144,-21.857 1.684,6.093 h 23.969 l 3.367,-6.093 z m 21.959,13.022 3.207,-5.852 h -23.166 l 1.604,5.852 z m -18.041,1.078 1.684,6.091 h 12.506 l 3.287,-6.091 z m 3.684,13.262 h 6.654 l 3.285,-6.092 H 166.82 Z M 92.658,95.224 81.114,82.078 v 27.816 h 5.772 V 97.789 L 98.43,110.855 V 82.639 h -5.772 z" />
    <path
       style="clip-rule:evenodd;fill-rule:evenodd"
       id="path6"
       d="m 113.434,99.278 c 3.398,-1.051 5.701,-4.376 5.736,-7.662 0.051,-4.978 -4.035,-8.973 -9.014,-8.973 l -9.619,-0.006 v 27.255 h 5.611 V 98.189 l 7.936,11.703 h 6.494 z m -3.918,-3.638 h -3.367 v -8.049 h 3.367 c 2.223,0 4.023,1.802 4.023,4.025 0,2.223 -1.801,4.024 -4.023,4.024 z M 31.853,82.584 H 2.834 l 3.367,6.093 h 23.968 z m -1.999,7.17 H 6.687 l 3.207,5.852 H 28.25 Z m -19.395,6.93 3.287,6.091 h 12.505 l 1.683,-6.091 z m 7.139,13.262 h 6.653 l 1.684,-6.092 H 14.312 Z M 40.224,95.943 34.292,81.354 26.356,109.891 h 5.933 l 3.126,-11.222 4.809,11.943 4.81,-11.863 3.126,11.142 h 5.932 L 46.156,81.354 Z m 143.094,8.19 a 3.635,3.635 0 1 0 0,7.27 3.635,3.635 0 0 0 0,-7.27 z m 0,6.695 a 3.062,3.062 0 1 1 10e-4,-6.123 3.062,3.062 0 0 1 -10e-4,6.123 z" />
    <path
       style="clip-rule:evenodd;fill-rule:evenodd"
       id="path8"
       d="m 184.221,107.903 c 0.271,-0.062 0.486,-0.19 0.645,-0.383 0.16,-0.193 0.238,-0.424 0.238,-0.692 0,-0.383 -0.145,-0.672 -0.434,-0.868 -0.289,-0.196 -0.721,-0.294 -1.293,-0.294 h -1.584 v 4.048 h 0.98 v -1.659 h 0.486 l 0.77,1.659 h 1.094 z m -0.33,-0.579 c -0.137,0.092 -0.348,0.137 -0.631,0.137 h -0.486 v -1.172 h 0.432 c 0.305,0 0.529,0.049 0.672,0.146 0.145,0.099 0.217,0.251 0.217,0.457 -0.001,0.197 -0.07,0.34 -0.204,0.432 z" />
  </g>
</svg>
