<?xml version="1.0" encoding="UTF-8" standalone="no"?>
<svg
   xmlns:dc="http://purl.org/dc/elements/1.1/"
   xmlns:cc="http://creativecommons.org/ns#"
   xmlns:rdf="http://www.w3.org/1999/02/22-rdf-syntax-ns#"
   xmlns:svg="http://www.w3.org/2000/svg"
   xmlns="http://www.w3.org/2000/svg"
   id="svg2777"
   viewBox="-0.84402381 -0.84402381 42.712122 28.13543"
   height="363.22437"
   width="551.91199"
   version="1.0">
  <metadata
     id="metadata22">
    <rdf:RDF>
      <cc:Work
         rdf:about="">
        <dc:format>image/svg+xml</dc:format>
        <dc:type
           rdf:resource="http://purl.org/dc/dcmitype/StillImage" />
        <dc:title></dc:title>
      </cc:Work>
    </rdf:RDF>
  </metadata>
  <defs
     id="defs2779">
    <clipPath
       id="clipPath2561">
      <path
         id="path2563"
         d="M 0,595.26 H 838.8 V 0.06 H 0 Z" />
    </clipPath>
    <clipPath
       id="clipPath2555">
      <path
         id="path2557"
         d="M 0,595 H 839 V 0 H 0 Z" />
    </clipPath>
    <clipPath
       id="clipPath2549">
      <path
         id="path2551"
         d="m 741.83,580.83 h 62.61 v -27.07 h -62.61 z" />
    </clipPath>
  </defs>
  <g
     transform="matrix(1.2517955,0,0,-1.25,-964.41811,725.19478)"
     clip-path="url(#clipPath2555)"
     id="g2553">
    <g
       clip-path="url(#clipPath2561)"
       id="g2559">
      <path
         d="m 988.6875,17.71875 c -0.57501,-0.02625 -1.375,0.02375 -1.96875,0.03125 -5.97501,0.07 -13.4675,2.36375 -13.78125,5.21875 -0.24125,2.2075 4.25375,4.26625 7.09375,4.65625 -0.82753,-0.93125 -1.28125,-1.93625 -1.28125,-3.03125 -2e-5,-3.3125 4.18125,-6.025 9.9375,-6.875 z m -5.1875,5.125 c -1.46125,0 -2.62499,1.19125 -2.625,2.65625 0,1.46625 1.16375,2.656251 2.625,2.65625 1.46125,0 2.65625,-1.19 2.65625,-2.65625 0,-1.465 -1.195,-2.65625 -2.65625,-2.65625 z M 987,23.375 c 0.82748,0.93 1.28125,1.935 1.28125,3.03125 3e-5,3.31125 -4.18125,5.99375 -9.9375,6.84375 0.57501,0.0275 1.34375,-0.025 1.9375,-0.03125 5.97502,-0.07125 13.49875,-2.3325 13.8125,-5.1875 C 994.33501,25.825 989.83875,23.76375 987,23.375 Z"
         transform="matrix(0.8,0,0,-0.8,0,595)"
         id="path2565"
         style="fill:#2954a2;fill-opacity:1;fill-rule:nonzero;stroke:none" />
      <path
         d="m 966.46875,38.96875 c -1.31625,0.01125 -4.05,0.15375 -4.09375,1.90625 0.18499,1.268748 1.70875,1.50875 2.875,1.8125 1.46375,0.382498 2.93,0.25 3.125,1 0.13123,0.503751 -0.73,0.85125 -1.25,0.9375 -0.6175,0.102501 -2.43375,0.08125 -2.8125,-0.6875 h -2.15625 c 0.085,1.746251 3.01125,1.90625 4.46875,1.90625 1.45002,0 3.82625,-0.4975 3.90625,-1.96875 0.0875,-1.621251 -2.27625,-1.96 -3.09375,-2.125 -0.75378,-0.152501 -2.9125,-0.46375 -2.90625,-1 0.006,-0.543751 1.1525,-0.66625 1.84375,-0.65625 0.92001,0.01375 1.775,0.22875 1.84375,0.90625 h 2.125 c -0.56127,-1.752499 -2.31,-2.04625 -3.875,-2.03125 z m 17,0 c -2.78748,-0.03125 -4.4375,1.29625 -4.4375,3.46875 3e-5,2.17125 1.9175,3.33 4.1875,3.40625 1.46877,0.04875 3.935,-0.51625 4.21875,-2.15625 h -2.03125 c -0.37002,0.682501 -1.18875,0.96875 -2.0625,0.9375 -1.57126,-0.05625 -2.26625,-0.8525 -2.28125,-2.34375 -0.008,-0.71 0.3675,-2.14375 2.375,-2.1875 1.0325,-0.0225 1.79,0.35625 1.90625,0.90625 h 2.125 c -0.62624,-1.888749 -2.5475,-2.015 -4,-2.03125 z m 17.31245,0 c -1.31623,0.01125 -4.04995,0.15375 -4.0937,1.90625 0.18502,1.268748 1.70875,1.50875 2.875,1.8125 1.4637,0.382498 2.93,0.25 3.125,1 0.1313,0.503751 -0.73,0.85125 -1.25,0.9375 -0.6163,0.102501 -2.435,0.08125 -2.8125,-0.6875 h -2.15625 c 0.085,1.746251 3.01,1.90625 4.46875,1.90625 1.4487,0 3.8262,-0.4975 3.9063,-1.96875 0.087,-1.621251 -2.2751,-1.96 -3.0938,-2.125 -0.7525,-0.152501 -2.9125,-0.46375 -2.90625,-1 0.006,-0.543751 1.15375,-0.66625 1.84375,-0.65625 0.9213,0.01375 1.775,0.22875 1.8437,0.90625 h 2.125 c -0.5612,-1.752499 -2.3099,-2.04625 -3.875,-2.03125 z m -26.74995,0.125 -3.5,6.625 h 2 l 0.5625,-0.96875 h 3.78125 l 0.5625,0.96875 h 2 l -3.5,-6.625 z m 14.21875,0 v 6.625 h 1.84375 v -2.625 h 3.84375 v 2.625 h 1.84375 v -6.625 h -1.84375 v 2.625 h -3.84375 v -2.625 z M 974.96875,40.875 976.375,43.5 h -2.78125 z"
         transform="matrix(0.8,0,0,-0.8,0,595)"
         id="path2571"
         style="fill:#2954a2;fill-opacity:1;fill-rule:evenodd;stroke:none" />
    </g>
  </g>
</svg>
