<svg xmlns="http://www.w3.org/2000/svg" viewBox="0 0 70 64.93"><defs><style>.cls-1{fill:none;stroke:#fff;stroke-miterlimit:40;stroke-width:1.75px;}.cls-2{fill:#e42313;}.cls-3{fill:#ffd300;}</style></defs><title>shell</title><g id="Capa_2" data-name="Capa 2"><g id="Capa_1-2" data-name="Capa 1"><path class="cls-1" d="M31,62.35H13.67L12.07,49.5,1.57,41.86a34.12,34.12,0,1,1,66.87,0L57.93,49.5l-1.6,12.84H39l-1,.73a5.11,5.11,0,0,1-6,0Z"/><path class="cls-2" d="M31,62.05H13.87L12.28,49.33,1.87,41.76a33.82,33.82,0,1,1,66.27,0L57.73,49.33,56.14,62.05H39l-1,.72a5.07,5.07,0,0,1-6,0Z"/><path class="cls-3" d="M31.56,56.14H19.09L17.83,46.06,7.56,38.58a14.37,14.37,0,0,1,.8-9.44L26.54,47.53,8.86,25.7a14.37,14.37,0,0,1,4.42-7.32L29.12,45.74l-14-30a14.38,14.38,0,0,1,7.24-5.09l9.69,34L24.93,9.29a14.36,14.36,0,0,1,8.63-1.77L35,44.3,36.44,7.53a14.36,14.36,0,0,1,8.63,1.77L38,44.66l9.69-34a14.37,14.37,0,0,1,7.24,5.09l-14,30L56.73,18.38a14.37,14.37,0,0,1,4.42,7.32L43.46,47.53,61.65,29.14a14.38,14.38,0,0,1,.79,9.44L52.17,46.06,50.91,56.14H38.44l-1.84,1.34a2.7,2.7,0,0,1-3.18,0Z"/></g></g></svg>