<?xml version="1.0" encoding="UTF-8" standalone="no"?>
<svg
   xmlns:dc="http://purl.org/dc/elements/1.1/"
   xmlns:cc="http://creativecommons.org/ns#"
   xmlns:rdf="http://www.w3.org/1999/02/22-rdf-syntax-ns#"
   xmlns:svg="http://www.w3.org/2000/svg"
   xmlns="http://www.w3.org/2000/svg"
   xml:space="preserve"
   enable-background="new 0 0 624 105"
   viewBox="0 0 196.742 93.68411"
   height="93.684113"
   width="196.742"
   y="0px"
   x="0px"
   id="Layer_1"
   version="1.1"><metadata
     id="metadata155"><rdf:RDF><cc:Work
         rdf:about=""><dc:format>image/svg+xml</dc:format><dc:type
           rdf:resource="http://purl.org/dc/dcmitype/StillImage" /><dc:title></dc:title></cc:Work></rdf:RDF></metadata><defs
     id="defs153" /><path
     d="m 604.293,87.120062 c 0,6.209 -5.035,11.243 -11.242,11.243 H 6.555 c -6.20899999,0 -11.242,-5.034 -11.242,-11.243 V 6.5550621 c 0,-6.20900001 5.03300001,-11.242 11.242,-11.242 h 586.496 c 6.207,0 11.242,5.03299999 11.242,11.242 z"
     id="path2"
     style="fill:#ffffff" /><g
     transform="translate(-5.3067115,-6.2362168)"
     id="g246"><path
       transform="translate(0.61971149,0.57427887)"
       d="M 11.557,5.662 C 7.761,5.646 4.687,8.726 4.687,12.527 V 80.61 h 196.742 l -0.001,-67.922 c 0,-3.879 -3.146,-7.026 -7.028,-7.026 H 11.557 Z"
       id="path4"
       style="fill:#0071bb" /><path
       transform="translate(0.61971149,0.57427887)"
       d="M 11.557,99.346 C 7.761,99.36 4.687,96.282 4.687,92.479 v -7.187 h 196.742 l -0.001,7.025 c 0,3.881 -3.146,7.026 -7.028,7.026 z"
       id="path6"
       style="fill:#d91f3d" /><g
       id="g16"
       transform="translate(0.61971149,0.57427887)"><path
         d="m 71.228,61.871 c 0.772,0 1.404,-0.63 1.404,-1.405 V 39.854 c 0,-0.776 -0.632,-1.403 -1.409,-1.403 H 45.462 c -0.517,0 -0.939,-0.42 -0.939,-0.937 v -7.497 c 0,-0.517 0.423,-0.935 0.939,-0.935 h 7.496 c 0.516,0 0.934,0.418 0.934,0.935 v 2.344 c 0,0.774 0.631,1.405 1.409,1.405 H 66.54 c 0.777,0 1.404,-0.631 1.404,-1.405 v -6.554 c 0,-0.779 -0.627,-1.409 -1.404,-1.409 H 31.876 c -0.778,0 -1.409,0.63 -1.409,1.409 v 15.922 c 0,0.774 0.631,1.405 1.409,1.405 h 25.765 c 0.516,0 0.934,0.418 0.934,0.936 v 12.18 c 0,0.517 -0.418,0.934 -0.934,0.934 H 40.779 c -0.521,0 -0.94,-0.417 -0.94,-0.934 v -7.029 c 0,-0.771 -0.626,-1.402 -1.404,-1.402 H 27.193 c -0.775,0 -1.406,0.63 -1.406,1.402 v 11.244 c 0,0.775 0.631,1.405 1.406,1.405 h 44.035 z"
         id="path10"
         style="fill:#ffffff" /><path
         d="m 96.053,48.414 c 0,-0.135 0.107,-0.234 0.237,-0.234 0.063,0 0.117,0.025 0.156,0.065 l 13.119,13.113 c 0.261,0.313 0.648,0.513 1.086,0.513 h 16.781 c 0.78,0 1.406,-0.63 1.406,-1.405 V 49.232 c 0,-0.78 -0.626,-1.406 -1.406,-1.406 h -12.106 c -0.442,0 -0.829,-0.197 -1.089,-0.508 l -8.695,-8.703 c -0.045,-0.042 -0.072,-0.102 -0.072,-0.164 0,-0.067 0.027,-0.124 0.072,-0.163 l 4,-4.009 c 0.259,-0.315 0.65,-0.513 1.085,-0.513 h 12.125 c 0.774,0 1.405,-0.628 1.405,-1.405 v -6.554 c 0,-0.779 -0.631,-1.409 -1.405,-1.409 H 110.65 c -0.438,0 -0.825,0.201 -1.086,0.509 L 96.446,38.024 c -0.039,0.043 -0.092,0.066 -0.156,0.066 -0.13,0 -0.237,-0.105 -0.237,-0.231 V 25.808 c 0,-0.779 -0.632,-1.409 -1.406,-1.409 H 81.066 c -0.779,0 -1.401,0.63 -1.401,1.409 v 11.233 c 0,0.778 0.622,1.41 1.401,1.41 0.515,0 0.937,0.422 0.937,0.934 v 7.499 c 0,0.511 -0.422,0.937 -0.937,0.937 -0.779,0 -1.401,0.63 -1.401,1.402 v 11.244 c 0,0.775 0.622,1.405 1.401,1.405 h 13.581 c 0.774,0 1.406,-0.63 1.406,-1.405 z"
         id="path12"
         style="fill:#ffffff" /><path
         d="m 150.852,61.871 c 0.774,0 1.406,-0.63 1.406,-1.405 V 49.222 c 0,-0.771 -0.632,-1.402 -1.406,-1.402 -0.519,0 -0.938,-0.425 -0.938,-0.937 V 44.07 c 0,-0.518 0.419,-0.936 0.938,-0.936 h 5.146 c 0.517,0 0.932,0.418 0.932,0.936 0,0.776 0.631,1.407 1.409,1.407 h 11.257 c 0.774,0 1.401,-0.631 1.401,-1.407 v -6.557 c 0,-0.777 -0.626,-1.404 -1.401,-1.404 H 158.34 c -0.778,0 -1.409,0.627 -1.409,1.404 0,0.517 -0.415,0.937 -0.932,0.937 h -5.146 c -0.519,0 -0.938,-0.42 -0.938,-0.937 v -7.497 c 0,-0.517 0.419,-0.935 0.938,-0.935 h 14.522 c 0.518,0 0.94,0.418 0.94,0.935 v 2.344 c 0,0.777 0.631,1.405 1.409,1.405 h 15.928 c 0.772,0 1.402,-0.628 1.402,-1.405 v -6.554 c 0,-0.779 -0.63,-1.409 -1.402,-1.409 h -46.381 c -0.778,0 -1.403,0.63 -1.403,1.409 v 11.233 c 0,0.778 0.625,1.41 1.403,1.41 0.517,0 0.938,0.422 0.938,0.934 v 7.499 c 0,0.511 -0.422,0.937 -0.938,0.937 -0.778,0 -1.403,0.63 -1.403,1.402 v 11.244 c 0,0.775 0.625,1.405 1.403,1.405 h 13.581 z"
         id="path14"
         style="fill:#ffffff" /></g></g><rect
     x="205.51628"
     y="45.266785"
     width="46.846001"
     height="46.844002"
     id="rect20"
     style="fill:none" /></svg>