<svg xmlns="http://www.w3.org/2000/svg" viewBox="0 0 100 43.32"><defs><style>.cls-1{fill:#2b748a;}.cls-2{fill:#94c631;}</style></defs><title>valeo</title><g id="Capa_2" data-name="Capa 2"><g id="Capa_1-2" data-name="Capa 1"><path class="cls-1" d="M97.35,31.83C89,31.2,78.6,30.69,67.25,30.69c-17.38,0-37,1.19-54.91,4.9A29.18,29.18,0,0,0,.08,26.47L0,26.63c4.95,5.38,8.11,10,10.36,16.69C35.45,34,67,32.23,90.75,32.23c2.28,0,4.44,0,6.55.05Z"/><path class="cls-2" d="M71.23,14.82a8.58,8.58,0,0,0,.24-1.94,1.84,1.84,0,0,0-1.9-2.06c-1.6,0-2.43.95-2.81,4ZM39.56,22.17a3.59,3.59,0,0,1-2,.76c-1.54,0-1.76-1.3-1.76-2.84a22,22,0,0,1,1-6.3,3.48,3.48,0,0,1,3.71-2.49,2.57,2.57,0,0,1,.38,0ZM92,17.74c-.57,5.24-1.35,6.33-2.86,6.33s-1.92-1-1.92-3.19a34.14,34.14,0,0,1,.27-3.65C88,12,88.81,10.9,90.31,10.9s1.92,1,1.92,3.19A34,34,0,0,1,92,17.74m-35.91,10H48.54L51.95,0h7.52Zm15.28-4.81a20.51,20.51,0,0,0,5.14-.81l-.92,5a30.63,30.63,0,0,1-7,.76c-7.59,0-9.7-3.3-9.7-7.63,0-11.06,4.76-13.57,11.3-13.57,5.14,0,8.33,2.49,8.33,7.25a23.16,23.16,0,0,1-.72,5.25H66.5c0,2.38.78,3.73,4.84,3.73M41.78,6.81c-5.24,0-8.08,1-10.38,3.46S28,16.71,28,21.06C28,24.85,29,28,33.67,28a11.38,11.38,0,0,0,5.73-1.81h.08l-.19,1.51H46.4L48.94,6.95c-2.08-.08-4.49-.14-7.17-.14M100,14.17c0-5.36-3.47-7.52-9.28-7.52-7,0-11.3,3.22-11.3,14.14,0,5.35,3.47,7.52,9.28,7.52,7,0,11.3-3.14,11.3-14.14M25.44,0a116.51,116.51,0,0,1-7.17,19.5h-.05A143.17,143.17,0,0,1,17,0H8.3a126.26,126.26,0,0,0,4.11,27.69H20.8A175.47,175.47,0,0,0,33.4,0Z"/></g></g></svg>